<svg width="32" height="25" viewBox="0 0 32 25" fill="none" xmlns="http://www.w3.org/2000/svg"><path d="M0 22.3214C0 23.8281 1.16667 25 2.66667 25H29.3333C30.7778 25 32 23.8281 32 22.3214V12.5H0V22.3214ZM10.6667 18.5268C10.6667 18.192 10.9444 17.8571 11.3333 17.8571H18.8889C19.2222 17.8571 19.5556 18.192 19.5556 18.5268V20.7589C19.5556 21.1496 19.2222 21.4286 18.8889 21.4286H11.3333C10.9444 21.4286 10.6667 21.1496 10.6667 20.7589V18.5268ZM3.55556 18.5268C3.55556 18.192 3.83333 17.8571 4.22222 17.8571H8.22222C8.55556 17.8571 8.88889 18.192 8.88889 18.5268V20.7589C8.88889 21.1496 8.55556 21.4286 8.22222 21.4286H4.22222C3.83333 21.4286 3.55556 21.1496 3.55556 20.7589V18.5268ZM32 2.67857C32 1.22768 30.7778 0 29.3333 0H2.66667C1.16667 0 0 1.22768 0 2.67857V5.35714H32V2.67857Z" fill="#3393E5"></path></svg>